<svg width="697" height="584" viewBox="0 0 697 584" fill="none" xmlns="http://www.w3.org/2000/svg">
<path d="M98.2031 310.599L98.2344 310.724L120.953 395.521L121.083 395.562L205.875 418.281L268.047 356.109L268.016 355.984L245.292 271.187L245.167 271.151L160.37 248.432L98.2031 310.604V310.599ZM121.333 395.146L98.7135 310.734L160.505 248.943L244.917 271.562L267.536 355.974L205.745 417.766L121.333 395.146Z" fill="#06038D"/>
<path d="M-47.802 330.042L-47.7655 330.172L-33.2499 384.354L-33.1249 384.391L21.0574 398.906L60.8126 359.151L60.7813 359.021L46.2657 304.839L46.1407 304.802L-8.04158 290.286L-47.802 330.042ZM-32.8749 383.979L-47.2916 330.182L-7.91138 290.802L45.8855 305.219L60.3022 359.01L20.922 398.391L-32.8749 383.979Z" fill="#06038D"/>
<path d="M73.7083 447L73.7395 447.13L81.0155 474.281L81.1458 474.323L108.297 481.599L128.271 461.625L128.234 461.5L120.958 434.344L120.833 434.307L93.677 427.031L73.7083 447ZM81.3905 473.906L74.2187 447.141L93.8176 427.542L120.588 434.708L127.76 461.479L108.161 481.078L81.3905 473.906Z" fill="#06038D"/>
<path d="M-55.375 64.4427V154.714L-55.2604 154.781L22.8073 199.854L22.9219 199.786L100.99 154.719V64.4427L100.875 64.3802L22.8073 19.3073L22.6927 19.3698L-55.375 64.4427ZM-54.9167 154.448V64.7031L22.8073 19.8333L100.531 64.7031V154.448L22.8073 199.318L-54.9167 154.448Z" fill="#06038D"/>
<path d="M17.6824 125.505V199.146L17.797 199.208L81.4584 235.964L81.573 235.901L145.234 199.146V125.505L145.12 125.438L81.4584 88.6875L81.3438 88.75L17.6824 125.505ZM18.1407 198.88V125.771L81.4584 89.2135L144.776 125.771V198.88L81.4584 235.438L18.1407 198.88Z" fill="#06038D"/>
<path d="M138.552 27.5677V74.6771L138.667 74.7448L179.349 98.2292L179.463 98.1667L220.151 74.6771V27.5677L220.036 27.5052L179.349 4.01562L179.234 4.07812L138.552 27.5677ZM139.01 74.4115V27.8333L179.349 4.54167L219.693 27.8333V74.4115L179.349 97.7031L139.01 74.4115Z" fill="#06038D"/>
<path d="M37.9688 30.2552V53.9479L38.0833 54.0104L58.4792 65.7864L78.9896 53.9427V30.2552L78.875 30.1875L58.4792 18.4114L37.9688 30.2552ZM38.4271 53.6823V30.526L58.4792 18.9479L78.5312 30.526V53.6823L58.4792 65.2604L38.4271 53.6823Z" fill="#06038D"/>
<path d="M396.5 387.464L398.589 388.667V391.073H399.51V388.135L396.958 386.661L396.5 387.464Z" fill="#06038D"/>
<path d="M398.589 396.693V402.474H399.51V396.693H398.589ZM398.589 408.25V414.031H399.51V408.25H398.589ZM398.589 419.807V425.589H399.51V419.807H398.589Z" fill="#06038D"/>
<path d="M396.5 434.005L396.958 434.797L399.51 433.333V430.391H398.589V432.802L396.5 434.005Z" fill="#06038D"/>
<path d="M366.557 451.26L367.016 452.057L372.026 449.167L371.568 448.375L366.557 451.26ZM376.583 445.479L377.042 446.276L382.057 443.385L381.594 442.594L376.583 445.479ZM386.609 439.703L387.068 440.495L392.083 437.609L391.62 436.812L386.609 439.703Z" fill="#06038D"/>
<path d="M357.75 454.458L360.297 455.927L362.849 454.458L362.391 453.667L360.297 454.87L358.208 453.667L357.75 454.458Z" fill="#06038D"/>
<path d="M327.807 437.203L332.823 440.094L333.281 439.297L328.271 436.411L327.807 437.203ZM337.833 442.984L342.849 445.87L343.307 445.078L338.297 442.187L337.833 442.984ZM347.865 448.766L352.875 451.651L353.333 450.854L348.323 447.969L347.865 448.766Z" fill="#06038D"/>
<path d="M321.094 430.391V433.333L323.646 434.797L324.099 434.005L322.01 432.802V430.391H321.094Z" fill="#06038D"/>
<path d="M321.094 395.875V401.656H322.01V395.875H321.094ZM321.094 407.438V413.219H322.01V407.438H321.094ZM321.094 418.99V424.771H322.01V418.99H321.094Z" fill="#06038D"/>
<path d="M321.094 388.135V391.073H322.01V388.667L324.099 387.464L323.646 386.661L321.094 388.135Z" fill="#06038D"/>
<path d="M328.516 383.859L328.974 384.651L333.99 381.766L333.531 380.969L328.516 383.859ZM338.542 378.078L339 378.87L344.016 375.984L343.557 375.193L338.542 378.078ZM348.568 372.297L349.026 373.094L354.042 370.203L353.583 369.411L348.568 372.297Z" fill="#06038D"/>
<path d="M357.75 367.005L358.208 367.797L360.297 366.594L362.391 367.797L362.849 367.005L360.297 365.536L357.75 367.005Z" fill="#06038D"/>
<path d="M367.266 370.609L372.276 373.495L372.734 372.703L367.724 369.812L367.266 370.609ZM377.292 376.391L382.302 379.276L382.76 378.484L377.75 375.594L377.292 376.391ZM387.318 382.167L392.328 385.057L392.786 384.26L387.776 381.375L387.318 382.167Z" fill="#06038D"/>
<mask id="mask0_5_634" style="mask-type:luminance" maskUnits="userSpaceOnUse" x="395" y="430" width="7" height="6">
<path d="M395.667 430.667H401.609V436H395.667V430.667Z" fill="white"/>
</mask>
<g mask="url(#mask0_5_634)">
<path d="M396.505 433.135C396.505 429.979 401.417 429.974 401.417 433.135C401.417 436.297 396.505 436.297 396.505 433.135Z" fill="#06038D"/>
</g>
<mask id="mask1_5_634" style="mask-type:luminance" maskUnits="userSpaceOnUse" x="395" y="385" width="7" height="7">
<path d="M395.667 385.333H401.609V392H395.667V385.333Z" fill="white"/>
</mask>
<g mask="url(#mask1_5_634)">
<path d="M396.703 388.406C396.703 385.25 401.609 385.245 401.609 388.406C401.609 391.573 396.703 391.573 396.703 388.406Z" fill="#06038D"/>
</g>
<path d="M358.214 366.141C358.214 362.984 363.12 362.979 363.12 366.141C363.12 369.307 358.214 369.307 358.214 366.141Z" fill="#06038D"/>
<path d="M319.13 388.802C319.13 385.646 324.042 385.641 324.042 388.802C324.042 391.964 319.13 391.964 319.13 388.802Z" fill="#06038D"/>
<path d="M318.938 433.333C318.938 430.177 323.844 430.172 323.844 433.333C323.844 436.495 318.938 436.495 318.938 433.333Z" fill="#06038D"/>
<path d="M357.62 455.599C357.62 452.443 362.531 452.437 362.531 455.599C362.531 458.76 357.62 458.76 357.62 455.599Z" fill="#06038D"/>
<path d="M324.042 82.0208L326.13 83.2239V85.6354H327.047V82.6927L324.5 81.2239L324.042 82.0208Z" fill="#06038D"/>
<path d="M326.13 91.25V97.0312H327.047V91.25H326.13ZM326.13 102.807V108.589H327.047V102.807H326.13ZM326.13 114.365V120.146H327.047V114.365H326.13Z" fill="#06038D"/>
<path d="M324.042 128.568L324.5 129.359L327.047 127.891V124.948H326.13V127.359L324.042 128.568Z" fill="#06038D"/>
<path d="M294.099 145.823L294.557 146.615L299.573 143.729L299.115 142.938L294.099 145.823ZM304.125 140.042L304.583 140.839L309.599 137.948L309.141 137.156L304.125 140.042ZM314.151 134.26L314.609 135.057L319.625 132.172L319.167 131.375L314.151 134.26Z" fill="#06038D"/>
<path d="M285.292 149.016L287.844 150.484L290.391 149.016L289.932 148.224L287.844 149.427L285.75 148.224L285.292 149.016Z" fill="#06038D"/>
<path d="M255.349 131.76L260.359 134.651L260.818 133.854L255.807 130.969L255.349 131.76ZM265.375 137.542L270.385 140.427L270.844 139.635L265.833 136.745L265.375 137.542ZM275.401 143.323L280.411 146.208L280.875 145.411L275.859 142.526L275.401 143.323Z" fill="#06038D"/>
<path d="M248.63 124.948V127.891L251.182 129.359L251.641 128.568L249.547 127.359V124.948H248.63Z" fill="#06038D"/>
<path d="M248.63 90.4375V96.2188H249.547V90.4375H248.63ZM248.63 102V107.776H249.547V102H248.63ZM248.63 113.552V119.333H249.547V113.552H248.63Z" fill="#06038D"/>
<path d="M248.63 82.6927V85.6354H249.547V83.2239L251.641 82.0208L251.182 81.2239L248.63 82.6927Z" fill="#06038D"/>
<path d="M256.052 78.4167L256.516 79.2083L261.526 76.3229L261.068 75.526L256.052 78.4167ZM266.083 72.6354L266.542 73.4271L271.552 70.5417L271.094 69.75L266.083 72.6354ZM276.109 66.8542L276.568 67.651L281.578 64.7604L281.12 63.9688L276.109 66.8542Z" fill="#06038D"/>
<path d="M285.292 61.5677L285.75 62.3594L287.844 61.1562L289.932 62.3594L290.391 61.5677L287.844 60.0989L285.292 61.5677Z" fill="#06038D"/>
<path d="M294.802 65.1719L299.812 68.0573L300.276 67.2656L295.26 64.375L294.802 65.1719ZM304.828 70.9531L309.838 73.8385L310.302 73.0417L305.286 70.1562L304.828 70.9531ZM314.854 76.7292L319.87 79.6198L320.328 78.8229L315.312 75.9375L314.854 76.7292Z" fill="#06038D"/>
<path d="M324.047 127.698C324.047 124.542 328.953 124.536 328.953 127.698C328.953 130.859 324.047 130.859 324.047 127.698Z" fill="#06038D"/>
<path d="M324.245 82.9688C324.245 79.8125 329.151 79.8073 329.151 82.9688C329.151 86.1302 324.245 86.1302 324.245 82.9688Z" fill="#06038D"/>
<path d="M285.755 60.7031C285.755 57.5469 290.661 57.5417 290.661 60.7031C290.661 63.8646 285.755 63.8646 285.755 60.7031Z" fill="#06038D"/>
<path d="M246.677 83.3594C246.677 80.2031 251.583 80.1979 251.583 83.3594C251.583 86.5208 246.677 86.5208 246.677 83.3594Z" fill="#06038D"/>
<path d="M246.479 127.896C246.479 124.734 251.385 124.734 251.385 127.896C251.385 131.057 246.479 131.057 246.479 127.896Z" fill="#06038D"/>
<path d="M285.167 150.161C285.167 147 290.073 147 290.073 150.161C290.073 153.323 285.167 153.323 285.167 150.161Z" fill="#06038D"/>
<path d="M-4.40625 159.443C-4.40625 156.286 0.5 156.281 0.5 159.443C0.5 162.604 -4.40625 162.604 -4.40625 159.443Z" fill="#06038D"/>
<path d="M-4.20825 114.714C-4.20825 111.557 0.697998 111.552 0.697998 114.714C0.697998 117.88 -4.20825 117.88 -4.20825 114.714Z" fill="#06038D"/>
<path d="M-36.4114 233.266V285.74L-36.1822 285.87L9.10946 311.974L9.33862 311.844L54.6251 285.74V233.266L54.3959 233.13L9.10946 207.026L8.88029 207.161L-36.4114 233.266ZM-35.4895 285.203V233.792L9.10946 208.083L53.7084 233.792V285.203L9.10946 310.911L-35.4895 285.203Z" fill="#06038D"/>
<path d="M51.2136 285.557C51.2136 281.885 56.9167 281.88 56.9167 285.557C56.9167 289.234 51.2136 289.234 51.2136 285.557Z" fill="#06038D"/>
<path d="M51.4426 233.542C51.4426 229.87 57.1458 229.865 57.1458 233.542C57.1458 237.219 51.4426 237.219 51.4426 233.542Z" fill="#06038D"/>
<path d="M6.68237 207.646C6.68237 203.974 12.3907 203.969 12.3907 207.646C12.3907 211.323 6.68237 211.323 6.68237 207.646Z" fill="#06038D"/>
<path d="M5.99487 311.682C5.99487 308.01 11.7032 308.005 11.7032 311.682C11.7032 315.359 5.99487 315.359 5.99487 311.682Z" fill="#06038D"/>
<path d="M44.2605 -34.6823V17.7865L44.4897 17.9219L89.7813 44.026L90.0105 43.8906L135.297 17.7865V-34.6823L135.068 -34.8177L89.7813 -60.9219L89.547 -60.7865L44.2605 -34.6823ZM45.1772 17.2552V-34.1562L89.7813 -59.8646L134.38 -34.1562V17.2552L89.7813 42.9635L45.1772 17.2552Z" fill="#06038D"/>
<path d="M131.88 17.6094C131.88 13.9375 137.588 13.9323 137.588 17.6094C137.588 21.2865 131.88 21.2865 131.88 17.6094Z" fill="#06038D"/>
<path d="M41.677 17.8385C41.677 14.1666 47.3801 14.1614 47.3801 17.8385C47.3801 21.5156 41.677 21.5156 41.677 17.8385Z" fill="#06038D"/>
<path d="M86.6667 43.7291C86.6667 40.0573 92.3751 40.052 92.3751 43.7291C92.3751 47.4062 86.6667 47.4062 86.6667 43.7291Z" fill="#06038D"/>
</svg>
