<svg width="640" height="585" viewBox="0 0 640 585" fill="none" xmlns="http://www.w3.org/2000/svg">
<path d="M535.198 331.042L535.234 331.172L549.75 385.354L549.875 385.391L604.057 399.906L643.813 360.151L643.781 360.021L629.266 305.839L629.141 305.802L574.958 291.286L535.198 331.042ZM550.125 384.979L535.708 331.182L575.089 291.802L628.885 306.219L643.302 360.01L603.922 399.391L550.125 384.979Z" fill="#06038D"/>
<mask id="mask0_5_477" style="mask-type:luminance" maskUnits="userSpaceOnUse" x="294" y="182" width="248" height="285">
<path d="M294.891 182.333H541.333V466.333H294.891V182.333Z" fill="white"/>
</mask>
<g mask="url(#mask0_5_477)">
<path d="M295.38 253.62V394.875L295.495 394.938L417.713 465.5L417.828 465.438L540.042 394.875V253.62L539.927 253.557L417.713 182.995L417.599 183.057L295.38 253.62ZM295.838 394.609V253.885L417.713 183.521L539.583 253.885V394.609L417.713 464.974L295.838 394.609Z" fill="#06038D"/>
</g>
<path d="M527.625 65.4427V155.714L527.74 155.781L605.807 200.854L605.922 200.786L683.99 155.719V65.4427L683.875 65.3802L605.807 20.3073L605.693 20.3698L527.625 65.4427ZM528.083 155.448V65.7031L605.807 20.8333L683.531 65.7031V155.448L605.807 200.318L528.083 155.448Z" fill="#06038D"/>
<path d="M334.354 70.6145V115.885L334.469 115.948L373.563 138.516L373.677 138.453L412.766 115.885V70.6145L412.651 70.552L373.563 47.9791L373.448 48.0468L334.354 70.6145ZM334.813 115.62V70.8802L373.563 48.5104L412.307 70.8802V115.62L373.563 137.99L334.813 115.62Z" fill="#06038D"/>
<path d="M600.682 126.505V200.146L600.797 200.208L664.458 236.964L664.573 236.901L728.234 200.146V126.505L728.12 126.438L664.458 89.6875L664.344 89.75L600.682 126.505ZM601.141 199.88V126.771L664.458 90.2135L727.776 126.771V199.88L664.458 236.438L601.141 199.88Z" fill="#06038D"/>
<path d="M620.969 31.2552V54.9479L621.083 55.0104L641.479 66.7864L661.99 54.9427V31.2552L661.875 31.1875L641.479 19.4114L620.969 31.2552ZM621.427 54.6823V31.526L641.479 19.9479L661.531 31.526V54.6823L641.479 66.2604L621.427 54.6823Z" fill="#06038D"/>
<path d="M550.172 334.266L552.26 335.474V337.885H553.177V334.943L550.625 333.474L550.172 334.266Z" fill="#06038D"/>
<path d="M552.26 343.5V349.281H553.177V343.5H552.26ZM552.26 355.052V360.833H553.177V355.052H552.26ZM552.26 366.615V372.396H553.177V366.615H552.26Z" fill="#06038D"/>
<path d="M550.172 380.813L550.625 381.609L553.177 380.141V377.198H552.26V379.604L550.172 380.813Z" fill="#06038D"/>
<path d="M520.224 398.073L520.682 398.865L525.698 395.979L525.24 395.182L520.224 398.073ZM530.25 392.292L530.708 393.083L535.724 390.198L535.266 389.401L530.25 392.292ZM540.276 386.51L540.734 387.307L545.75 384.417L545.292 383.625L540.276 386.51Z" fill="#06038D"/>
<path d="M511.422 401.266L513.969 402.734L516.516 401.266L516.062 400.474L513.969 401.677L511.88 400.474L511.422 401.266Z" fill="#06038D"/>
<path d="M481.479 384.01L486.49 386.896L486.948 386.104L481.938 383.214L481.479 384.01ZM491.505 389.786L496.516 392.677L496.979 391.88L491.964 388.995L491.505 389.786ZM501.531 395.568L506.542 398.458L507.005 397.661L501.99 394.776L501.531 395.568Z" fill="#06038D"/>
<path d="M474.76 377.198V380.141L477.313 381.609L477.771 380.813L475.682 379.604V377.198H474.76Z" fill="#06038D"/>
<path d="M474.76 342.688V348.469H475.682V342.688H474.76ZM474.76 354.245V360.026H475.682V354.245H474.76ZM474.76 365.802V371.583H475.682V365.802H474.76Z" fill="#06038D"/>
<path d="M474.76 334.943V337.885H475.682V335.474L477.771 334.266L477.313 333.474L474.76 334.943Z" fill="#06038D"/>
<path d="M482.188 330.661L482.646 331.458L487.656 328.568L487.198 327.776L482.188 330.661ZM492.214 324.885L492.672 325.677L497.682 322.792L497.224 321.995L492.214 324.885ZM502.24 319.104L502.698 319.896L507.708 317.01L507.25 316.214L502.24 319.104Z" fill="#06038D"/>
<path d="M511.422 313.812L511.88 314.609L513.969 313.406L516.062 314.609L516.516 313.812L513.969 312.344L511.422 313.812Z" fill="#06038D"/>
<path d="M520.932 317.417L525.943 320.307L526.406 319.51L521.391 316.625L520.932 317.417ZM530.958 323.198L535.974 326.083L536.432 325.292L531.417 322.406L530.958 323.198ZM540.984 328.979L546 331.865L546.458 331.073L541.443 328.182L540.984 328.979Z" fill="#06038D"/>
<path d="M550.177 379.948C550.177 376.786 555.083 376.781 555.083 379.948C555.083 383.109 550.177 383.109 550.177 379.948Z" fill="#06038D"/>
<path d="M550.375 335.219C550.375 332.057 555.281 332.052 555.281 335.219C555.281 338.38 550.375 338.38 550.375 335.219Z" fill="#06038D"/>
<path d="M511.885 312.953C511.885 309.792 516.792 309.786 516.792 312.953C516.792 316.115 511.885 316.115 511.885 312.953Z" fill="#06038D"/>
<path d="M472.802 335.609C472.802 332.453 477.708 332.448 477.708 335.609C477.708 338.776 472.802 338.776 472.802 335.609Z" fill="#06038D"/>
<path d="M472.604 380.141C472.604 376.984 477.51 376.979 477.51 380.141C477.51 383.307 472.604 383.307 472.604 380.141Z" fill="#06038D"/>
<path d="M511.292 402.406C511.292 399.25 516.198 399.245 516.198 402.406C516.198 405.573 511.292 405.573 511.292 402.406Z" fill="#06038D"/>
<path d="M578.583 114.771L580.672 115.974V118.38H581.588V115.438L579.042 113.969L578.583 114.771Z" fill="#06038D"/>
<path d="M580.672 124V129.781H581.589V124H580.672ZM580.672 135.557V141.339H581.589V135.557H580.672ZM580.672 147.115V152.896H581.589V147.115H580.672Z" fill="#06038D"/>
<path d="M578.583 161.313L579.042 162.104L581.588 160.635V157.693H580.672V160.109L578.583 161.313Z" fill="#06038D"/>
<path d="M548.641 178.568L549.099 179.365L554.115 176.474L553.656 175.682L548.641 178.568ZM558.667 172.786L559.13 173.583L564.141 170.693L563.682 169.901L558.667 172.786ZM568.693 167.01L569.156 167.802L574.167 164.917L573.708 164.12L568.693 167.01Z" fill="#06038D"/>
<path d="M539.839 181.766L542.385 183.24L544.932 181.766L544.474 180.969L542.385 182.177L540.297 180.969L539.839 181.766Z" fill="#06038D"/>
<path d="M509.896 164.51L514.906 167.401L515.37 166.604L510.354 163.719L509.896 164.51ZM519.922 170.292L524.937 173.177L525.396 172.385L520.38 169.495L519.922 170.292ZM529.948 176.073L534.963 178.958L535.422 178.167L530.406 175.276L529.948 176.073Z" fill="#06038D"/>
<path d="M503.177 157.693V160.635L505.729 162.104L506.187 161.313L504.099 160.109V157.693H503.177Z" fill="#06038D"/>
<path d="M503.177 123.182V128.964H504.099V123.182H503.177ZM503.177 134.745V140.526H504.099V134.745H503.177ZM503.177 146.297V152.078H504.099V146.297H503.177Z" fill="#06038D"/>
<path d="M503.177 115.438V118.38H504.099V115.974L506.187 114.771L505.729 113.969L503.177 115.438Z" fill="#06038D"/>
<path d="M510.599 111.167L511.057 111.958L516.068 109.073L515.609 108.276L510.599 111.167ZM520.625 105.385L521.083 106.182L526.099 103.292L525.635 102.5L520.625 105.385ZM530.651 99.6042L531.109 100.401L536.125 97.5104L535.661 96.7188L530.651 99.6042Z" fill="#06038D"/>
<path d="M539.839 94.3125L540.297 95.1042L542.385 93.9062L544.474 95.1042L544.932 94.3125L542.385 92.8438L539.839 94.3125Z" fill="#06038D"/>
<path d="M549.349 97.9166L554.365 100.802L554.823 100.01L549.807 97.1198L549.349 97.9166ZM559.375 103.698L564.391 106.583L564.849 105.792L559.833 102.901L559.375 103.698ZM569.401 109.474L574.417 112.365L574.875 111.568L569.859 108.682L569.401 109.474Z" fill="#06038D"/>
<path d="M578.594 160.443C578.594 157.286 583.5 157.281 583.5 160.443C583.5 163.604 578.594 163.604 578.594 160.443Z" fill="#06038D"/>
<path d="M578.792 115.714C578.792 112.557 583.698 112.552 583.698 115.714C583.698 118.88 578.792 118.88 578.792 115.714Z" fill="#06038D"/>
<path d="M540.302 93.4479C540.302 90.2916 545.208 90.2864 545.208 93.4479C545.208 96.6145 540.302 96.6145 540.302 93.4479Z" fill="#06038D"/>
<path d="M501.219 116.109C501.219 112.953 506.125 112.948 506.125 116.109C506.125 119.271 501.219 119.271 501.219 116.109Z" fill="#06038D"/>
<path d="M501.021 160.641C501.021 157.484 505.927 157.479 505.927 160.641C505.927 163.802 501.021 163.802 501.021 160.641Z" fill="#06038D"/>
<path d="M539.708 182.906C539.708 179.75 544.615 179.745 544.615 182.906C544.615 186.068 539.708 186.068 539.708 182.906Z" fill="#06038D"/>
<path d="M395.469 133.984L397.557 135.188V137.599H398.474V134.656L395.927 133.193L395.469 133.984Z" fill="#06038D"/>
<path d="M397.557 143.219V149H398.474V143.219H397.557ZM397.557 154.776V160.552H398.474V154.776H397.557ZM397.557 166.333V172.115H398.474V166.333H397.557Z" fill="#06038D"/>
<path d="M395.469 180.526L395.927 181.323L398.474 179.854V176.917H397.557V179.328L395.469 180.526Z" fill="#06038D"/>
<path d="M365.526 197.792L365.984 198.583L371 195.698L370.542 194.901L365.526 197.792ZM375.552 192.01L376.01 192.802L381.026 189.917L380.568 189.125L375.552 192.01ZM385.578 186.229L386.037 187.026L391.052 184.135L390.594 183.344L385.578 186.229Z" fill="#06038D"/>
<path d="M356.724 200.984L359.271 202.453L361.818 200.984L361.359 200.193L359.271 201.396L357.182 200.193L356.724 200.984Z" fill="#06038D"/>
<path d="M326.781 183.729L331.792 186.615L332.255 185.823L327.24 182.932L326.781 183.729ZM336.807 189.51L341.818 192.396L342.281 191.604L337.266 188.714L336.807 189.51ZM346.833 195.286L351.849 198.177L352.307 197.38L347.292 194.495L346.833 195.286Z" fill="#06038D"/>
<path d="M320.062 176.917V179.854L322.609 181.323L323.073 180.526L320.984 179.328V176.917H320.062Z" fill="#06038D"/>
<path d="M320.062 142.401V148.182H320.984V142.401H320.062ZM320.062 153.964V159.74H320.984V153.964H320.062ZM320.062 165.516V171.297H320.984V165.516H320.062Z" fill="#06038D"/>
<path d="M320.062 134.656V137.599H320.984V135.188L323.073 133.984L322.609 133.193L320.062 134.656Z" fill="#06038D"/>
<path d="M327.484 130.38L327.943 131.177L332.953 128.292L332.495 127.495L327.484 130.38ZM337.51 124.604L337.969 125.396L342.979 122.51L342.521 121.714L337.51 124.604ZM347.536 118.823L347.995 119.62L353.01 116.729L352.547 115.938L347.536 118.823Z" fill="#06038D"/>
<path d="M356.724 113.531L357.182 114.323L359.271 113.12L361.359 114.323L361.818 113.531L359.271 112.062L356.724 113.531Z" fill="#06038D"/>
<path d="M366.234 117.135L371.245 120.021L371.708 119.229L366.693 116.339L366.234 117.135ZM376.26 122.911L381.276 125.802L381.734 125.005L376.719 122.12L376.26 122.911ZM386.286 128.693L391.302 131.583L391.76 130.786L386.745 127.901L386.286 128.693Z" fill="#06038D"/>
<path d="M395.474 179.661C395.474 176.5 400.38 176.5 400.38 179.661C400.38 182.823 395.474 182.823 395.474 179.661Z" fill="#06038D"/>
<path d="M395.672 134.932C395.672 131.776 400.578 131.771 400.578 134.932C400.578 138.094 395.672 138.094 395.672 134.932Z" fill="#06038D"/>
<path d="M357.188 112.667C357.188 109.51 362.094 109.505 362.094 112.667C362.094 115.828 357.188 115.828 357.188 112.667Z" fill="#06038D"/>
<path d="M318.104 135.328C318.104 132.167 323.01 132.161 323.01 135.328C323.01 138.49 318.104 138.49 318.104 135.328Z" fill="#06038D"/>
<path d="M317.906 179.859C317.906 176.698 322.812 176.693 322.812 179.859C322.812 183.021 317.906 183.021 317.906 179.859Z" fill="#06038D"/>
<path d="M356.594 202.125C356.594 198.964 361.5 198.958 361.5 202.125C361.5 205.286 356.594 205.286 356.594 202.125Z" fill="#06038D"/>
<path d="M457.443 440.354L459.531 441.562V443.974H460.448V441.031L457.901 439.562L457.443 440.354Z" fill="#06038D"/>
<path d="M459.531 449.589V455.37H460.448V449.589H459.531ZM459.531 461.146V466.922H460.448V461.146H459.531ZM459.531 472.703V478.484H460.448V472.703H459.531Z" fill="#06038D"/>
<path d="M457.443 486.901L457.901 487.698L460.448 486.229V483.286H459.531V485.698L457.443 486.901Z" fill="#06038D"/>
<path d="M427.5 504.161L427.958 504.953L432.969 502.068L432.51 501.271L427.5 504.161ZM437.526 498.38L437.984 499.177L443 496.286L442.536 495.495L437.526 498.38ZM447.552 492.599L448.01 493.396L453.026 490.505L452.562 489.714L447.552 492.599Z" fill="#06038D"/>
<path d="M418.693 507.354L421.24 508.823L423.792 507.354L423.328 506.562L421.24 507.766L419.146 506.562L418.693 507.354Z" fill="#06038D"/>
<path d="M388.75 490.099L393.76 492.984L394.219 492.193L389.208 489.302L388.75 490.099ZM398.776 495.88L403.786 498.766L404.245 497.974L399.234 495.083L398.776 495.88ZM408.802 501.656L413.812 504.547L414.271 503.75L409.26 500.865L408.802 501.656Z" fill="#06038D"/>
<path d="M382.036 483.286V486.229L384.583 487.698L385.042 486.901L382.953 485.698V483.286H382.036Z" fill="#06038D"/>
<path d="M382.036 448.776V454.557H382.953V448.776H382.036ZM382.036 460.339V466.115H382.953V460.339H382.036ZM382.036 471.891V477.672H382.953V471.891H382.036Z" fill="#06038D"/>
<path d="M382.036 441.031V443.974H382.953V441.562L385.042 440.354L384.583 439.562L382.036 441.031Z" fill="#06038D"/>
<path d="M389.453 436.755L389.911 437.547L394.927 434.661L394.469 433.865L389.453 436.755ZM399.479 430.974L399.938 431.766L404.953 428.88L404.495 428.083L399.479 430.974ZM409.505 425.193L409.969 425.99L414.979 423.099L414.521 422.307L409.505 425.193Z" fill="#06038D"/>
<path d="M418.693 419.906L419.146 420.698L421.24 419.49L423.328 420.698L423.792 419.906L421.24 418.438L418.693 419.906Z" fill="#06038D"/>
<path d="M428.203 423.51L433.214 426.396L433.672 425.604L428.661 422.714L428.203 423.51ZM438.229 429.286L443.24 432.177L443.698 431.38L438.688 428.495L438.229 429.286ZM448.255 435.068L453.266 437.953L453.724 437.161L448.714 434.276L448.255 435.068Z" fill="#06038D"/>
<path d="M457.443 486.036C457.443 482.875 462.354 482.875 462.354 486.036C462.354 489.198 457.443 489.198 457.443 486.036Z" fill="#06038D"/>
<path d="M457.641 441.307C457.641 438.151 462.552 438.146 462.552 441.307C462.552 444.469 457.641 444.469 457.641 441.307Z" fill="#06038D"/>
<path d="M419.151 419.042C419.151 415.885 424.063 415.88 424.063 419.042C424.063 422.203 419.151 422.203 419.151 419.042Z" fill="#06038D"/>
<path d="M380.078 441.698C380.078 438.536 384.984 438.536 384.984 441.698C384.984 444.859 380.078 444.859 380.078 441.698Z" fill="#06038D"/>
<path d="M379.88 486.234C379.88 483.073 384.786 483.068 384.786 486.234C384.786 489.396 379.88 489.396 379.88 486.234Z" fill="#06038D"/>
<path d="M418.562 508.5C418.562 505.339 423.469 505.333 423.469 508.5C423.469 511.661 418.562 511.661 418.562 508.5Z" fill="#06038D"/>
<path d="M546.589 234.266V286.74L546.818 286.87L592.109 312.974L592.339 312.844L637.625 286.74V234.266L637.396 234.13L592.109 208.026L591.88 208.161L546.589 234.266ZM547.51 286.203V234.792L592.109 209.083L636.708 234.792V286.203L592.109 311.911L547.51 286.203Z" fill="#06038D"/>
<path d="M634.214 286.557C634.214 282.885 639.917 282.88 639.917 286.557C639.917 290.234 634.214 290.234 634.214 286.557Z" fill="#06038D"/>
<path d="M634.443 234.542C634.443 230.87 640.146 230.865 640.146 234.542C640.146 238.219 634.443 238.219 634.443 234.542Z" fill="#06038D"/>
<path d="M589.682 208.646C589.682 204.974 595.391 204.969 595.391 208.646C595.391 212.323 589.682 212.323 589.682 208.646Z" fill="#06038D"/>
<path d="M544.234 235C544.234 231.328 549.943 231.323 549.943 235C549.943 238.677 544.234 238.677 544.234 235Z" fill="#06038D"/>
<path d="M544.005 286.786C544.005 283.115 549.713 283.109 549.713 286.786C549.713 290.464 544.005 290.464 544.005 286.786Z" fill="#06038D"/>
<path d="M588.995 312.682C588.995 309.01 594.703 309.005 594.703 312.682C594.703 316.359 588.995 316.359 588.995 312.682Z" fill="#06038D"/>
<path d="M627.26 -33.6823V18.7865L627.49 18.9219L672.781 45.026L673.01 44.8906L718.297 18.7865V-33.6823L718.068 -33.8177L672.781 -59.9219L672.547 -59.7865L627.26 -33.6823ZM628.177 18.2552V-33.1562L672.781 -58.8646L717.38 -33.1562V18.2552L672.781 43.9635L628.177 18.2552Z" fill="#06038D"/>
<path d="M624.677 18.8385C624.677 15.1666 630.38 15.1614 630.38 18.8385C630.38 22.5156 624.677 22.5156 624.677 18.8385Z" fill="#06038D"/>
<path d="M393.594 176.047V228.521L393.823 228.656L439.115 254.76L439.344 254.625L484.63 228.521V176.047L484.401 175.917L439.115 149.812L438.885 149.943L393.594 176.047ZM394.516 227.99V176.578L439.115 150.865L483.714 176.578V227.99L439.115 253.698L394.516 227.99Z" fill="#06038D"/>
<path d="M481.219 228.339C481.219 224.667 486.922 224.661 486.922 228.339C486.922 232.016 481.219 232.016 481.219 228.339Z" fill="#06038D"/>
<path d="M481.448 176.323C481.448 172.651 487.151 172.646 487.151 176.323C487.151 180 481.448 180 481.448 176.323Z" fill="#06038D"/>
<path d="M436.688 150.432C436.688 146.76 442.396 146.755 442.396 150.432C442.396 154.109 436.688 154.109 436.688 150.432Z" fill="#06038D"/>
<path d="M391.24 176.781C391.24 173.109 396.948 173.104 396.948 176.781C396.948 180.458 391.24 180.458 391.24 176.781Z" fill="#06038D"/>
<path d="M391.01 228.568C391.01 224.896 396.719 224.891 396.719 228.568C396.719 232.245 391.01 232.245 391.01 228.568Z" fill="#06038D"/>
<path d="M436 254.464C436 250.792 441.708 250.786 441.708 254.464C441.708 258.141 436 258.141 436 254.464Z" fill="#06038D"/>
</svg>
